<svg height="100%" width="100%" id="svg" viewBox="0 0 1440 400" xmlns="http://www.w3.org/2000/svg" class="transition duration-300 ease-in-out delay-150"><defs><linearGradient id="gradient"><stop offset="5%" stop-color="#77fc0388"></stop><stop offset="95%" stop-color="#03adfc88"></stop></linearGradient></defs><path d="M 0,400 C 0,400 0,133 0,133 C 67.44967365166607,123.4891789762968 134.89934730333215,113.9783579525936 201,110 C 267.10065269666785,106.0216420474064 331.85228443833734,107.57574716592237 399,120 C 466.14771556166266,132.42425283407763 535.6915149433185,155.71865338371697 595,158 C 654.3084850566815,160.28134661628303 703.3816557883888,141.5496392992099 788,119 C 872.6183442116112,96.45036070079011 992.7818619031261,70.08278941944349 1060,84 C 1127.2181380968739,97.91721058055651 1141.490896599107,152.11920302301613 1196,167 C 1250.509103400893,181.88079697698387 1345.2545517004464,157.44039848849195 1440,133 C 1440,133 1440,400 1440,400 Z" stroke="none" stroke-width="0" fill="url(#gradient)" class="transition-all duration-300 ease-in-out delay-150"></path><defs><linearGradient id="gradient"><stop offset="5%" stop-color="#77fc03ff"></stop><stop offset="95%" stop-color="#03adfcff"></stop></linearGradient></defs><path d="M 0,400 C 0,400 0,266 0,266 C 51.21401580212985,273.8852627962899 102.4280316042597,281.7705255925799 176,269 C 249.5719683957403,256.2294744074201 345.50188938509103,222.80316042597047 423,228 C 500.49811061490897,233.19683957402953 559.5644108553762,277.0168327035383 632,301 C 704.4355891446238,324.9831672964617 790.2404671934042,329.12950875987633 860,308 C 929.7595328065958,286.87049124012367 983.4737203710067,240.4651322569564 1050,242 C 1116.5262796289933,243.5348677430436 1195.8646513225694,293.0099622122982 1263,305 C 1330.1353486774306,316.9900377877018 1385.0676743387153,291.4950188938509 1440,266 C 1440,266 1440,400 1440,400 Z" stroke="none" stroke-width="0" fill="url(#gradient)" class="transition-all duration-300 ease-in-out delay-150"></path></svg>